#!OML:ASF Y:\EmotionMaleHayes\Project 1\Capture day 1\Session 1\Male1.ASF
:FULLY-SPECIFIED
:DEGREES
241
root 6.91353 17.3381 0.199761 36.7181 73.194 40.4817
lowerback 11.3929 1.50753 -2.42104
upperback 4.96523 2.19737 7.02838
thorax -1.53673 1.13856 8.53876
lowerneck -17.2098 -1.06047 11.0906
upperneck 31.964 -10.1938 19.6229
head 15.2478 0.276427 4.74812
rclavicle 4.05521e-014 6.99722e-014
rhumerus -15.8754 15.3515 -18.935
rradius 105.355
rwrist -31.1947
rhand 21.6542 -45.2294
rfingers 7.12502
rthumb 46.0729 -68.2935
lclavicle 4.05521e-014 6.99722e-014
lhumerus -72.5205 -43.7772 112.721
lradius 71.1497
lwrist 0.0305211
lhand 18.4247 -15.3274
lfingers 7.12502
lthumb 43.0648 8.8956
rfemur 2.34206 2.04093 -7.14339
rtibia 12.2394
rfoot -12.1906 -2.40714
rtoes -13.3114
lfemur 14.4898 8.03408 -22.1823
ltibia 7.21203
lfoot -18.4085 14.0083
ltoes -6.02949
242
root 6.88953 17.3363 0.203784 36.3174 73.0389 40.1322
lowerback 11.7497 1.48032 -2.42678
upperback 5.20858 2.17036 7.09327
thorax -1.47201 1.12263 8.616
lowerneck -17.1114 -1.26754 11.0318
upperneck 33.153 -10.5764 19.3465
head 15.8207 0.205939 4.70079
rclavicle -3.65764e-014 -8.5875e-014
rhumerus -14.784 13.5134 -19.3165
rradius 104.399
rwrist -30.974
rhand 22.2944 -45.5794
rfingers 7.12502
rthumb 46.6662 -68.3913
lclavicle -3.65764e-014 -8.5875e-014
lhumerus -73.6534 -44.3184 113.514
lradius 72.9396
lwrist 1.35959
lhand 19.466 -14.8942
lfingers 7.12502
lthumb 44.0373 8.97481
rfemur 2.06312 2.24117 -7.06063
rtibia 12.5322
rfoot -12.283 -2.45044
rtoes -12.681
lfemur 14.2827 8.24998 -22.1005
ltibia 7.62485
lfoot -18.5845 13.9969
ltoes -6.41942
243
root 6.86614 17.3319 0.211309 36.0561 72.932 39.8883
lowerback 12.0335 1.45124 -2.42743
upperback 5.40703 2.14016 7.14741
thorax -1.41311 1.10551 8.67963
lowerneck -16.6306 -1.51509 10.8209
upperneck 34.1037 -10.8823 19.282
head 16.217 0.131142 4.76195
rclavicle 2.62396e-014 4.13472e-014
rhumerus -13.7683 11.6979 -19.8793
rradius 103.419
rwrist -30.7241
rhand 22.7117 -45.966
rfingers 7.12502
rthumb 47.0524 -68.6091
lclavicle 2.62396e-014 4.13472e-014
lhumerus -74.8342 -44.8089 114.276
lradius 74.6742
lwrist 2.40367
lhand 20.5334 -14.7426
lfingers 7.12502
lthumb 45.0316 8.74451
rfemur 1.75993 2.39044 -6.97995
rtibia 12.8383
rfoot -12.3553 -2.51913
rtoes -11.9437
lfemur 14.0215 8.4412 -21.9792
ltibia 8.06626
lfoot -18.8119 13.9087
ltoes -6.53312
244
root 6.84328 17.3267 0.22049 36.025 72.7652 39.8764
lowerback 12.3148 1.4336 -2.66188
upperback 5.64358 2.10199 7.25443
thorax -1.31805 1.07974 8.94291
lowerneck -16.2259 -1.79258 10.7543
upperneck 35.0381 -11.2129 18.9537
head 16.5983 0.0285332 4.66991
rclavicle -2.38542e-015 -4.77083e-014
rhumerus -12.7529 9.80216 -20.4138
rradius 102.503
rwrist -30.7668
rhand 22.7935 -45.7802
rfingers 7.12502
rthumb 47.128 -68.3898
lclavicle -2.38542e-015 -4.77083e-014
lhumerus -75.6857 -45.0372 114.783
lradius 76.4497
lwrist 3.41459
lhand 21.6319 -14.4237
lfingers 7.12502
lthumb 46.0522 8.64911
rfemur 1.37703 2.51717 -6.98863
rtibia 13.2713
rfoot -12.4292 -2.65016
rtoes -12.5292
lfemur 13.7702 8.68481 -21.9426
ltibia 8.48686
lfoot -18.8899 13.7368
ltoes -6.00721
245
root 6.82106 17.3231 0.225256 35.9506 72.4913 39.8186
lowerback 12.5979 1.48608 -2.89445
upperback 5.9504 2.15366 7.32904
thorax -1.16317 1.09545 9.15768
lowerneck -16.0889 -2.37202 10.6387
upperneck 35.9322 -11.9117 18.2309
head 17.0111 -0.275793 4.32414
rclavicle 3.18055e-015 3.18055e-014
rhumerus -11.836 7.7314 -20.9258
rradius 101.492
rwrist -31.0132
rhand 22.6783 -44.452
rfingers 7.12502
rthumb 47.0215 -67.1088
lclavicle 3.18055e-015 3.18055e-014
lhumerus -76.3079 -45.3707 115.109
lradius 78.16
lwrist 4.35413
lhand 22.4116 -14.2306
lfingers 7.12502
lthumb 46.7747 8.53427
rfemur 0.927256 2.63815 -7.0904
rtibia 13.7256
rfoot -12.4633 -2.67256
rtoes -13.0519
lfemur 13.5409 8.89138 -22.0529
ltibia 8.82848
lfoot -18.9482 13.7821
ltoes -5.97381
246
root 6.80211 17.3187 0.226493 35.6731 72.2839 39.5568
lowerback 12.7807 1.51301 -2.85505
upperback 6.19242 2.1961 7.32096
thorax -1.01149 1.11098 9.12026
lowerneck -15.6204 -2.99182 10.2488
upperneck 36.7485 -12.592 17.8796
head 17.3663 -0.58017 4.19571
rclavicle -2.62396e-014 -2.54444e-014
rhumerus -11.0987 5.75495 -21.6794
rradius 100.388
rwrist -31.0904
rhand 22.678 -43.4557
rfingers 7.12502
rthumb 47.0212 -66.1126
lclavicle -2.62396e-014 -2.54444e-014
lhumerus -77.3222 -45.7896 115.548
lradius 79.8104
lwrist 5.15077
lhand 22.7763 -14.3539
lfingers 7.12502
lthumb 47.1121 8.26277
rfemur 0.556342 2.62678 -7.14667
rtibia 14.0402
rfoot -12.3469 -2.49805
rtoes -12.3721
lfemur 13.3132 9.07337 -22.0998
ltibia 9.22074
lfoot -19.0725 13.8616
ltoes -6.34607
247
root 6.78296 17.3135 0.227911 35.3672 72.1218 39.3006
lowerback 12.9461 1.49579 -2.80912
upperback 6.53772 2.18324 7.32985
thorax -0.730503 1.09464 9.10856
lowerneck -15.4929 -2.94346 10.0058
upperneck 37.6586 -12.583 18.0156
head 17.8988 -0.499272 4.42773
rclavicle -7.95139e-016 -7.63333e-014
rhumerus -10.2504 3.66515 -22.5028
rradius 99.3386
rwrist -31.2077
rhand 22.7922 -43.5107
rfingers 7.12502
rthumb 47.1268 -66.1208
lclavicle -7.95139e-016 -7.63333e-014
lhumerus -78.039 -46.2885 115.745
lradius 81.4694
lwrist 6.33888
lhand 23.7589 -14.1794
lfingers 7.12502
lthumb 48.0193 8.02443
rfemur 0.225907 2.53998 -7.17313
rtibia 14.3929
rfoot -12.2173 -2.24788
rtoes -11.7468
lfemur 13.0946 9.34455 -22.0684
ltibia 9.6705
lfoot -19.068 13.8287
ltoes -6.89419
248
root 6.75744 17.3094 0.23124 35.2826 71.9551 39.2619
lowerback 13.2787 1.5307 -2.82922
upperback 6.79059 2.23333 7.31954
thorax -0.649492 1.1162 9.10154
lowerneck -15.0501 -3.52861 9.54482
upperneck 38.3385 -13.2347 17.8613
head 18.2461 -0.791451 4.40227
rclavicle 4.6118e-014 1.46306e-013
rhumerus -9.62275 1.66906 -23.2619
rradius 98.434
rwrist -31.6997
rhand 22.5985 -43.7408
rfingers 7.12502
rthumb 46.9476 -66.43
lclavicle 4.6118e-014 1.46306e-013
lhumerus -78.9236 -46.8935 116.082
lradius 83.1772
lwrist 7.64043
lhand 24.5026 -13.6604
lfingers 7.12502
lthumb 48.7041 8.21714
rfemur -0.11186 2.53696 -7.22572
rtibia 14.8609
rfoot -12.2747 -2.1016
rtoes -11.3287
lfemur 12.8185 9.58182 -22.0851
ltibia 10.1158
lfoot -19.0045 13.8688
ltoes -7.42315
249
root 6.72953 17.3064 0.236459 35.3952 71.8215 39.3926
lowerback 13.6466 1.57445 -2.85337
upperback 6.97352 2.29282 7.27197
thorax -0.661838 1.14601 9.05187
lowerneck -14.4722 -3.89058 9.39893
upperneck 38.9328 -13.5696 17.6387
head 18.4537 -0.935464 4.33584
rclavicle -7.95139e-016 -3.18055e-015
rhumerus -9.14612 -0.223035 -24.0815
rradius 97.5666
rwrist -32.2568
rhand 22.0361 -43.6681
rfingers 7.12502
rthumb 46.4269 -66.5827
lclavicle -7.95139e-016 -3.18055e-015
lhumerus -80.0919 -47.4738 116.553
lradius 84.872
lwrist 8.51019
lhand 24.7247 -13.2061
lfingers 7.12502
lthumb 48.9083 8.57157
rfemur -0.488123 2.46263 -7.30266
rtibia 15.4108
rfoot -12.4105 -1.95617
rtoes -10.6648
lfemur 12.5277 9.73078 -22.1422
ltibia 10.5238
lfoot -19.0511 13.8677
ltoes -7.5423
250
root 6.7004 17.3026 0.243742 35.859 71.5568 39.8789
lowerback 13.9318 1.61437 -3.12329
upperback 7.23843 2.31514 7.20482
thorax -0.540374 1.14585 9.13522
lowerneck -14.1308 -4.20975 9.19966
upperneck 39.7008 -13.8582 17.2421
head 18.8092 -1.06651 4.22073
rclavicle -1.11319e-014 -3.18055e-015
rhumerus -8.48187 -2.1746 -24.965
rradius 96.6227
rwrist -32.7077
rhand 21.5264 -43.663
rfingers 7.12502
rthumb 45.9543 -66.7765
lclavicle -1.11319e-014 -3.18055e-015
lhumerus -80.8179 -47.8372 116.609
lradius 86.4939
lwrist 9.10253
lhand 25.6115 -13.0955
lfingers 7.12502
lthumb 49.722 8.27201
rfemur -1.00218 2.42667 -7.56417
rtibia 16.0829
rfoot -12.5747 -1.83225
rtoes -10.5786
lfemur 12.156 9.87526 -22.4111
ltibia 11.0516
lfoot -19.2653 13.7823
ltoes -7.35513
251
root 6.67183 17.2978 0.253097 36.5524 71.1827 40.6039
lowerback 14.157 1.66894 -3.58297
upperback 7.57084 2.33262 7.12449
thorax -0.316573 1.13322 9.32039
lowerneck -13.9224 -4.58512 8.73598
upperneck 40.5198 -14.2362 16.9672
head 19.299 -1.24876 4.20505
rclavicle 5.32743e-014 -1.27222e-014
rhumerus -7.43597 -4.3817 -26.0419
rradius 95.4656
rwrist -32.9788
rhand 21.0124 -43.7826
rfingers 7.12502
rthumb 45.4771 -67.0918
lclavicle 5.32743e-014 -1.27222e-014
lhumerus -81.2105 -48.1706 116.373
lradius 88.0764
lwrist 9.69035
lhand 26.5457 -13.2375
lfingers 7.12502
lthumb 50.5763 7.67725
rfemur -1.54445 2.50376 -7.95875
rtibia 16.7142
rfoot -12.7415 -1.74739
rtoes -10.4
lfemur 11.7011 10.0151 -22.8513
ltibia 11.7178
lfoot -19.6607 13.7209
ltoes -6.90456
252
root 6.64759 17.2929 0.265656 36.6293 70.8612 40.7164
lowerback 14.4172 1.75702 -3.86976
upperback 7.89731 2.41767 7.07711
thorax -0.126287 1.15945 9.42809
lowerneck -13.5943 -5.03634 8.13071
upperneck 41.1664 -14.705 16.9149
head 19.7245 -1.48441 4.29348
rclavicle 0 -3.18055e-015
rhumerus -6.22347 -6.68053 -27.3124
rradius 94.0953
rwrist -32.9606
rhand 20.5523 -43.3431
rfingers 7.12502
rthumb 45.0492 -66.8233
lclavicle 0 -3.18055e-015
lhumerus -81.9271 -48.6044 116.367
lradius 89.6509
lwrist 10.1577
lhand 26.5113 -13.3238
lfingers 7.12502
lthumb 50.5449 7.6081
rfemur -2.02316 2.52775 -8.12826
rtibia 17.2187
rfoot -12.7599 -1.54314
rtoes -9.61219
lfemur 11.4309 10.2908 -22.9992
ltibia 12.2156
lfoot -20.004 13.5935
ltoes -6.30222
253
root 6.62112 17.2884 0.282129 36.1334 70.6281 40.2399
lowerback 14.7106 1.82642 -4.00539
upperback 8.22648 2.50055 7.08593
thorax 0.052524 1.18897 9.50855
lowerneck -13.2337 -5.45634 7.51185
upperneck 41.788 -15.0626 16.7023
head 20.0927 -1.70914 4.31608
rclavicle -2.54444e-014 -4.77083e-014
rhumerus -5.07252 -8.71691 -28.5194
rradius 92.8446
rwrist -33.1313
rhand 20.4526 -42.6813
rfingers 7.12502
rthumb 44.9565 -66.198
lclavicle -2.54444e-014 -4.77083e-014
lhumerus -82.662 -48.9563 116.353
lradius 91.2121
lwrist 10.6571
lhand 26.0991 -13.293
lfingers 7.12502
lthumb 50.1683 7.84097
rfemur -2.48778 2.49697 -8.03654
rtibia 17.6829
rfoot -12.7089 -1.33763
rtoes -9.49477
lfemur 11.2437 10.6417 -22.8202
ltibia 12.5958
lfoot -20.0278 13.4752
ltoes -6.35933
254
root 6.58596 17.2841 0.297402 36.1224 70.4561 40.1957
lowerback 14.9998 1.81634 -4.24426
upperback 8.53257 2.46632 7.08607
thorax 0.231401 1.15615 9.6604
lowerneck -12.8387 -5.77807 6.99154
upperneck 42.4817 -15.1969 16.1831
head 20.4077 -1.8707 4.20521
rclavicle -3.18055e-015 -5.725e-014
rhumerus -4.2159 -10.3379 -29.5152
rradius 92.1591
rwrist -33.8631
rhand 19.9434 -42.298
rfingers 7.12502
rthumb 44.4823 -65.9986
lclavicle -3.18055e-015 -5.725e-014
lhumerus -83.1656 -49.2751 116.134
lradius 92.7307
lwrist 11.3317
lhand 26.2428 -13.2066
lfingers 7.12502
lthumb 50.2997 7.85739
rfemur -3.05514 2.33153 -8.05081
rtibia 18.2847
rfoot -12.708 -1.21411
rtoes -10.2488
lfemur 10.8037 10.8467 -22.7959
ltibia 13.1746
lfoot -19.9841 13.4857
ltoes -7.77149
255
root 6.54689 17.2775 0.309958 36.7216 70.1935 40.7486
lowerback 15.2546 1.83505 -4.63182
upperback 8.8437 2.44717 7.00602
thorax 0.432151 1.12435 9.80981
lowerneck -12.4677 -6.0885 6.53348
upperneck 43.0905 -15.3181 15.6639
head 20.6712 -2.02472 4.07104
rclavicle 2.06736e-014 -6.36111e-014
rhumerus -3.61158 -11.78 -30.4725
rradius 91.7057
rwrist -34.8554
rhand 18.5537 -41.8971
rfingers 7.12502
rthumb 43.1855 -66.0772
lclavicle 2.06736e-014 -6.36111e-014
lhumerus -83.6097 -49.7512 115.822
lradius 94.202
lwrist 11.9927
lhand 26.8678 -13.0392
lfingers 7.12502
lthumb 50.8702 7.7143
rfemur -3.77451 2.15652 -8.32702
rtibia 19.0955
rfoot -12.8124 -1.05235
rtoes -10.57
lfemur 10.2143 11.0305 -23.0955
ltibia 13.8929
lfoot -19.9826 13.5353
ltoes -9.23997
